<?xml version="1.0" standalone="no"?>
<!DOCTYPE svg PUBLIC "-//W3C//DTD SVG 20010904//EN"
 "http://www.w3.org/TR/2001/REC-SVG-20010904/DTD/svg10.dtd">
<svg version="1.0" xmlns="http://www.w3.org/2000/svg"
 width="240.000000pt" height="240.000000pt" viewBox="0 0 240.000000 240.000000"
 preserveAspectRatio="xMidYMid meet">

<g transform="translate(0.000000,240.000000) scale(0.100000,-0.100000)"
fill="#00B9A3" stroke="none">
<path d="M610 2054 c-198 -42 -357 -191 -416 -389 -24 -79 -24 -237 -1 -325
25 -92 96 -230 173 -334 80 -108 280 -314 474 -489 80 -72 193 -178 253 -236
l107 -106 108 106 c59 58 172 164 252 236 194 175 394 381 474 489 77 104 148
242 173 334 23 88 23 246 -1 325 -71 239 -292 405 -541 405 -133 0 -304 -67
-407 -160 l-58 -52 -57 52 c-106 95 -277 161 -413 159 -30 0 -84 -7 -120 -15z
m847 -335 c7 -6 29 -40 50 -75 20 -35 41 -64 46 -64 5 0 25 9 43 21 19 11 34
18 34 14 0 -11 -121 -220 -133 -230 -7 -6 -62 -8 -142 -5 l-130 5 38 23 c20
13 37 26 37 28 0 16 -139 244 -162 266 -15 14 -28 28 -28 30 0 8 336 -4 347
-13z m-353 -20 c30 -24 86 -102 86 -121 0 -12 -123 -233 -140 -251 -9 -10
-240 121 -240 135 0 20 123 219 147 238 35 28 111 27 147 -1z m627 -446 c63
-107 71 -153 37 -203 -32 -47 -80 -70 -149 -70 l-57 0 -71 125 c-39 69 -71
129 -71 133 0 4 53 38 117 75 135 76 111 83 194 -60z m-777 -50 c37 -64 64
-118 62 -120 -2 -2 -19 5 -37 16 -19 12 -37 21 -41 21 -12 0 -148 -246 -155
-283 l-8 -36 -79 136 c-44 75 -81 146 -84 158 -2 15 11 49 38 94 22 39 39 75
36 80 -3 5 -19 14 -36 21 -16 7 -30 16 -30 21 0 5 60 9 134 9 l135 0 65 -117z
m432 -198 l-2 -45 153 0 c92 0 163 4 175 11 11 6 22 8 24 6 5 -5 -122 -231
-153 -273 -11 -16 -30 -20 -106 -24 l-92 -5 3 -42 c1 -24 -1 -43 -6 -43 -4 0
-38 51 -75 114 l-68 114 68 116 c37 64 71 116 75 116 4 0 6 -20 4 -45z m-216
-185 l0 -140 -140 0 -139 0 -35 30 c-39 34 -61 88 -51 122 4 13 19 47 33 76
l26 52 153 0 153 0 0 -140z"/>
</g>
</svg>
